<svg xmlns="http://www.w3.org/2000/svg" viewBox="0 0 800 600" width="800" height="600" role="img" aria-label="Chewy fudge brownies, biscoff">
<defs>
  <pattern id="dots" width="46" height="46" patternUnits="userSpaceOnUse">
    <circle cx="8" cy="8" r="2.2" fill="#E9DDCC"/>
  </pattern>
</defs>
<rect width="800" height="600" fill="#F6E7C8"/>
<rect width="800" height="600" fill="url(#dots)"/>
<ellipse cx="400" cy="452" rx="235" ry="26" fill="#E9DDCC" opacity="0.75"/>
<ellipse cx="400" cy="440" rx="230" ry="42" fill="#FFFFFF"/>
<ellipse cx="400" cy="432" rx="230" ry="42" fill="#FBF7F2"/>
<ellipse cx="400" cy="432" rx="230" ry="42" fill="none" stroke="#E9DDCC" stroke-width="3"/>

<rect x="228" y="342" width="344" height="86" rx="10" fill="#5C4028"/>
<rect x="228" y="306" width="344" height="58" rx="8" fill="#4A3221"/>
<rect x="228" y="284" width="344" height="44" rx="14" fill="#9C6630"/>
<ellipse cx="330" cy="298" rx="52" ry="9" fill="#FFFFFF" opacity="0.22"/>
<g fill="#A9713C">
      <circle cx="336" cy="298" r="5"/><circle cx="392" cy="290" r="4"/>
      <circle cx="452" cy="300" r="5"/><circle cx="512" cy="292" r="4"/>
    </g>
<circle cx="214" cy="430" r="5" fill="#5C4028" opacity="0.85"/>
<circle cx="596" cy="438" r="4" fill="#5C4028" opacity="0.85"/>
<circle cx="560" cy="446" r="3" fill="#4A3221" opacity="0.85"/>
</svg>
